<?xml version="1.0" encoding="UTF-8"?>
<svg id="Layer_1" xmlns="http://www.w3.org/2000/svg" version="1.1" viewBox="0 0 595.28 841.89">
  <!-- Generator: Adobe Illustrator 29.6.1, SVG Export Plug-In . SVG Version: 2.1.1 Build 9)  -->
  <defs>
    <style>
      .st0 {
        fill: #c2daf1;
      }

      .st1 {
        fill: #fff;
      }
    </style>
  </defs>
  <path class="st1" d="M266.44,12.89c12.05-1.51,26.46-.73,38.32-.53,4.78.18,9.52.64,14.16,1.45l.16.03c20.15,4.53,41.74,5.1,60.83,14.7,9.17,4.21,18.07,12.66,13.73,23.48-4.29,11.02-15.96,11.74-26.3,8.84C180.83,4.42.53,166.61,52.54,360.35c10.39,42,36.01,76.96,62.23,107.66,24.4,28.58,50.62,63.2,63.19,100.79,4.48,12.76,7.8,25.87,10.52,39.12,1,4.88,2,11.02,3.47,15.25,1.34,3.68,3.55,3.73,8.25,3.58,2.03-.03,3.97.01,6.06,0,42.8-.15,156.47-.09,196.51-.2,3.51.21,6.06-.5,7.62-3.6,1.88-3.65,3.36-9.54,4.3-14.28,6.8-39.22,21.83-76.51,45.54-108.07,5.11-6.72,9.43-13.73,16.89-17.39,8.98-4.75,21.95-.54,24.18,9.97,2.96,13.34-9.78,23.46-16.18,33.83-20.58,31.03-32.76,66.84-38.13,104.02-2.77,21.66-13.3,30.56-35.36,31.09-74.47,1.25-149.5,1.58-224.07-.14-6.16-.88-12.02-2.74-16.73-6-9.88-6.81-13.76-19.05-16.6-30.21-5.01-21.69-9.41-45.39-20.3-65.74-19.51-39.18-50.94-66.53-75.63-101.93C-59.93,292.78,38.83,47,238.37,17.54"/>
  <path class="st0" d="M271.71,390.42c.27-.17,1.86-3.96,3.22-5.47,82.69-91.62,170.49-178.38,252.65-270.69,26.87-20.9,60.5,8.9,45.88,41.3-95.79,107.23-193.95,213.5-293.61,316.47-9.13,4.07-19.04,1.49-26.84-4.41l-123.64-133.33c-21.12-31.17,13.68-65.69,42.36-45.7l93.31,100.58c1.71,1.5,4.73,2.46,6.65,1.25h.01Z"/>
  <path class="st1" d="M417.71,699.19c.3.54,1.82,11.2,1.74,12.36-.56,10.18-12.69,15.12-21.3,15.9-61.54,5.59-131.17-4.31-193.56-.06-24.92-2.85-26.71-33.56-5.94-36.08h203.92c2.85-.42,14.34,6.43,15.14,7.87v.02Z"/>
  <path class="st1" d="M371.41,759.03c20.3,3.79,18.78,33.51-1.34,35.97l-141.74-.14c-17.98-4.21-20.08-30.56-1.23-35.59l144.31-.24Z"/>
</svg>