<?xml version="1.0" encoding="UTF-8"?>
<svg id="Layer_1" xmlns="http://www.w3.org/2000/svg" version="1.1" viewBox="0 0 595.28 841.89">
  <!-- Generator: Adobe Illustrator 29.6.1, SVG Export Plug-In . SVG Version: 2.1.1 Build 9)  -->
  <defs>
    <style>
      .st0 {
        fill: #3ac6f4;
      }

      .st1 {
        fill: #425158;
      }
    </style>
  </defs>
  <path class="st1" d="M310.61,104.2c16.64,4.35,35.66,3.51,51.36,13.18,2.88,1.57,5.87,3.3,7.29,6.17,2.17,4.74.06,12.43-4.5,15.57-3.33,2.41-7.84,2.63-11.98,1.72-141-45.72-284.01,70.98-248.54,215.35,12.1,57.1,56.18,85.06,84.68,132.37,11.98,19.87,18.87,42.17,22.95,64.79.5,2.13.67,4.76,1.52,6.39.19.27.39.36.69.39,39.07-.01,127.78-.11,165.05-.17.88-.21,1.37-.69,1.96-1.59.65-1,1.35-2.61,1.87-4.5,4.53-28.98,14.39-56.99,31.35-80.88,3.25-4.72,6.91-9.18,10.49-13.66,2.64-3.62,5.53-7.41,10.36-8.08,11.95-2.44,21.24,8.2,15.63,19.19-21.82,24.02-34.04,52.65-40.38,84.51-1.1,5.87-1.24,11.74-2.91,17.34-2.29,8.79-11.03,14.32-20.2,14.03-59.68,1.36-119.8.81-179.62.3-7.32-1.31-13.42-4.5-17.46-10.39-8.62-15.66-8.31-33.63-14.95-50.67-2.94-8.01-6.87-15.89-11.28-23.17-15.59-25.74-36.89-44.03-54.29-68.32C18.3,309.27,97.78,124.26,253.96,106.64c3.85-.85,7.31-1.38,10.97-2.04,2.01-.41,3.74-1.26,5.84-1.36,12.73-.11,30.01-.83,39.68.93l.15.03Z"/>
  <path class="st0" d="M274.52,384.42c.21-.12,1.44-2.95,2.48-4.06,63.79-68.13,131.52-132.65,194.89-201.3,20.73-15.54,46.67,6.62,35.39,30.72-73.89,79.74-149.61,158.77-226.49,235.34-7.04,3.03-14.69,1.11-20.7-3.28l-95.37-99.15c-16.29-23.18,10.55-48.85,32.68-33.99l71.98,74.8c1.32,1.12,3.65,1.83,5.13.93h.01Z"/>
  <path class="st1" d="M387.14,614.03c.23.4,1.4,8.33,1.34,9.19-.43,7.57-9.79,11.24-16.43,11.82-47.47,4.15-101.18-3.2-149.31-.04-19.22-2.12-20.6-24.95-4.58-26.83h157.3c2.2-.31,11.06,4.78,11.68,5.85h0Z"/>
  <path class="st1" d="M240.09,658.71l111.34-.18c15.66,2.82,14.48,24.92-1.04,26.75l-109.34-.1c-13.87-3.14-15.49-22.73-.95-26.47h-.01Z"/>
</svg>